<svg width="17" height="17" viewBox="0 0 17 17" fill="none" xmlns="http://www.w3.org/2000/svg">
<g clip-path="url(#clip0_1_2104)">
<path d="M16.3602 8.26261C16.3602 8.63528 16.058 8.93739 15.6854 8.93741H0.839867C0.320415 8.93743 -0.00424261 8.37512 0.255461 7.92524C0.376001 7.71644 0.598781 7.58782 0.839867 7.58782H15.6854C16.058 7.58783 16.3602 7.88995 16.3602 8.26261ZM0.839867 3.53905H15.6854C16.2048 3.53902 16.5295 2.97668 16.2697 2.52683C16.1492 2.31806 15.9264 2.18945 15.6854 2.18945H0.839867C0.320415 2.18945 -0.00424908 2.75178 0.255481 3.20165C0.376021 3.41043 0.598787 3.53905 0.839867 3.53905ZM15.6854 12.9862H0.839867C0.320415 12.9862 -0.00424908 13.5485 0.255481 13.9984C0.376021 14.2072 0.598787 14.3358 0.839867 14.3358H15.6854C16.2048 14.3357 16.5295 13.7734 16.2697 13.3236C16.1492 13.1148 15.9264 12.9862 15.6854 12.9862Z" fill="white"/>
</g>
<defs>
<clipPath id="clip0_1_2104">
<rect width="16.5256" height="16.5256" fill="white"/>
</clipPath>
</defs>
</svg>
